<svg width="512" height="512" viewBox="0 0 512 512" xmlns="http://www.w3.org/2000/svg">
  <circle cx="256" cy="256" r="248" fill="#042C53"/>

  <!-- Chip body — centered vertically since no text -->
  <rect x="152" y="152" width="208" height="208" rx="20" fill="#0C447C"/>

  <!-- Pins — top -->
  <rect x="192" y="118" width="22" height="34" rx="5" fill="#85B7EB"/>
  <rect x="234" y="118" width="22" height="34" rx="5" fill="#85B7EB"/>
  <rect x="276" y="118" width="22" height="34" rx="5" fill="#85B7EB"/>
  <rect x="318" y="118" width="22" height="34" rx="5" fill="#85B7EB"/>

  <!-- Pins — bottom -->
  <rect x="192" y="360" width="22" height="34" rx="5" fill="#85B7EB"/>
  <rect x="234" y="360" width="22" height="34" rx="5" fill="#85B7EB"/>
  <rect x="276" y="360" width="22" height="34" rx="5" fill="#85B7EB"/>
  <rect x="318" y="360" width="22" height="34" rx="5" fill="#85B7EB"/>

  <!-- Pins — left -->
  <rect x="88" y="182" width="34" height="22" rx="5" fill="#85B7EB"/>
  <rect x="88" y="224" width="34" height="22" rx="5" fill="#85B7EB"/>
  <rect x="88" y="266" width="34" height="22" rx="5" fill="#85B7EB"/>
  <rect x="88" y="308" width="34" height="22" rx="5" fill="#85B7EB"/>

  <!-- Pins — right -->
  <rect x="390" y="182" width="34" height="22" rx="5" fill="#85B7EB"/>
  <rect x="390" y="224" width="34" height="22" rx="5" fill="#85B7EB"/>
  <rect x="390" y="266" width="34" height="22" rx="5" fill="#85B7EB"/>
  <rect x="390" y="308" width="34" height="22" rx="5" fill="#85B7EB"/>

  <!-- Inner circle — core -->
  <circle cx="256" cy="256" r="58" fill="#185FA5"/>
  <circle cx="256" cy="256" r="26" fill="#B5D4F4"/>

  <!-- Personality curve -->
  <path d="M 226 232 Q 240 220 256 226" fill="none" stroke="#0C447C" stroke-width="5" stroke-linecap="round"/>
</svg>
